<svg width="60" height="60" viewBox="0 0 60 60" fill="none" xmlns="http://www.w3.org/2000/svg">
<path d="M56.6666 43.3333H3.33329C2.62605 43.3333 1.94777 43.6143 1.44767 44.1144C0.947577 44.6145 0.666626 45.2928 0.666626 46C0.666626 46.7072 0.947577 47.3855 1.44767 47.8856C1.94777 48.3857 2.62605 48.6667 3.33329 48.6667H56.6666C57.3739 48.6667 58.0521 48.3857 58.5522 47.8856C59.0523 47.3855 59.3333 46.7072 59.3333 46C59.3333 45.2928 59.0523 44.6145 58.5522 44.1144C58.0521 43.6143 57.3739 43.3333 56.6666 43.3333ZM56.6666 54H3.33329C2.62605 54 1.94777 54.2809 1.44767 54.781C0.947577 55.2811 0.666626 55.9594 0.666626 56.6667C0.666626 57.3739 0.947577 58.0522 1.44767 58.5523C1.94777 59.0524 2.62605 59.3333 3.33329 59.3333H56.6666C57.3739 59.3333 58.0521 59.0524 58.5522 58.5523C59.0523 58.0522 59.3333 57.3739 59.3333 56.6667C59.3333 55.9594 59.0523 55.2811 58.5522 54.781C58.0521 54.2809 57.3739 54 56.6666 54ZM14 16.6667C13.4725 16.6667 12.957 16.8231 12.5184 17.1161C12.0799 17.4091 11.7381 17.8256 11.5363 18.3128C11.3344 18.8001 11.2816 19.3363 11.3845 19.8536C11.4874 20.3709 11.7414 20.846 12.1143 21.2189C12.4873 21.5919 12.9624 21.8459 13.4797 21.9488C13.997 22.0517 14.5332 21.9988 15.0204 21.797C15.5077 21.5952 15.9242 21.2534 16.2172 20.8149C16.5102 20.3763 16.6666 19.8607 16.6666 19.3333C16.6666 18.6261 16.3857 17.9478 15.8856 17.4477C15.3855 16.9476 14.7072 16.6667 14 16.6667ZM51.3333 0.666664H8.66663C6.54489 0.666664 4.51006 1.50952 3.00977 3.00981C1.50948 4.5101 0.666626 6.54493 0.666626 8.66666V30C0.666626 32.1217 1.50948 34.1566 3.00977 35.6568C4.51006 37.1571 6.54489 38 8.66663 38H51.3333C53.455 38 55.4899 37.1571 56.9901 35.6568C58.4904 34.1566 59.3333 32.1217 59.3333 30V8.66666C59.3333 6.54493 58.4904 4.5101 56.9901 3.00981C55.4899 1.50952 53.455 0.666664 51.3333 0.666664ZM54 30C54 30.7072 53.719 31.3855 53.2189 31.8856C52.7188 32.3857 52.0405 32.6667 51.3333 32.6667H8.66663C7.95938 32.6667 7.2811 32.3857 6.78101 31.8856C6.28091 31.3855 5.99996 30.7072 5.99996 30V8.66666C5.99996 7.95942 6.28091 7.28114 6.78101 6.78105C7.2811 6.28095 7.95938 6 8.66663 6H51.3333C52.0405 6 52.7188 6.28095 53.2189 6.78105C53.719 7.28114 54 7.95942 54 8.66666V30ZM30 11.3333C28.4177 11.3333 26.871 11.8025 25.5554 12.6816C24.2398 13.5606 23.2144 14.8101 22.6089 16.2719C22.0034 17.7337 21.845 19.3422 22.1537 20.8941C22.4624 22.4459 23.2243 23.8714 24.3431 24.9902C25.4619 26.109 26.8874 26.8709 28.4392 27.1796C29.9911 27.4883 31.5996 27.3299 33.0614 26.7244C34.5232 26.1189 35.7727 25.0935 36.6517 23.7779C37.5308 22.4623 38 20.9156 38 19.3333C38 17.2116 37.1571 15.1768 35.6568 13.6765C34.1565 12.1762 32.1217 11.3333 30 11.3333ZM30 22C29.4725 22 28.957 21.8436 28.5184 21.5506C28.0799 21.2576 27.7381 20.8411 27.5363 20.3538C27.3344 19.8666 27.2816 19.3304 27.3845 18.8131C27.4874 18.2958 27.7414 17.8207 28.1143 17.4477C28.4873 17.0748 28.9624 16.8208 29.4797 16.7179C29.997 16.615 30.5332 16.6678 31.0204 16.8696C31.5077 17.0715 31.9242 17.4133 32.2172 17.8518C32.5102 18.2903 32.6666 18.8059 32.6666 19.3333C32.6666 20.0406 32.3857 20.7189 31.8856 21.2189C31.3855 21.719 30.7072 22 30 22ZM46 16.6667C45.4725 16.6667 44.957 16.8231 44.5184 17.1161C44.0799 17.4091 43.7381 17.8256 43.5363 18.3128C43.3344 18.8001 43.2816 19.3363 43.3845 19.8536C43.4874 20.3709 43.7414 20.846 44.1143 21.2189C44.4873 21.5919 44.9624 21.8459 45.4797 21.9488C45.997 22.0517 46.5332 21.9988 47.0204 21.797C47.5077 21.5952 47.9242 21.2534 48.2172 20.8149C48.5102 20.3763 48.6666 19.8607 48.6666 19.3333C48.6666 18.6261 48.3857 17.9478 47.8856 17.4477C47.3855 16.9476 46.7072 16.6667 46 16.6667Z" fill="#10ABED" fill-opacity="0.91"/>
</svg>
